<?xml version="1.0" encoding="utf-8"?>
<!-- Generator: Adobe Illustrator 28.0.0, SVG Export Plug-In . SVG Version: 6.00 Build 0)  -->
<svg version="1.1" id="Layer_1" xmlns="http://www.w3.org/2000/svg" xmlns:xlink="http://www.w3.org/1999/xlink" x="0px" y="0px"
	 viewBox="0 0 383 82" style="enable-background:new 0 0 383 82;" xml:space="preserve">
<style type="text/css">
	.st0{fill:#FFFFFF;}
</style>
<g>
	<g>
		<path class="st0" d="M56.8,72.3H27.2l-4,9.3h-23L37,1.3h10l36.9,80.3H60.8L56.8,72.3z M50.1,56.9L42,38.1l-8.2,18.8H50.1z"/>
	</g>
	<g>
		<path class="st0" d="M142.6,72.3H113l-4,9.3h-23l36.9-80.3h10l36.9,80.3h-23.1L142.6,72.3z M135.9,56.9l-8.1-18.8l-8.2,18.8H135.9
			z"/>
	</g>
	<g>
		<path class="st0" d="M215.9,81.6l-21.2-34.4v34.4h-21.1l-0.1-79.3h30.1c17.1,0,29.4,11.6,29.4,25.8c0,9.9-6,18.2-13.7,21.7
			l21.3,31.8H215.9z M194.6,37.1l8.6,0c4.5,0,8.6-3.1,8.6-8c0-4.9-4.1-8-8.6-8h-8.6V37.1z"/>
	</g>
	<g>
		<path class="st0" d="M238.7,41.9c0-23.5,19-41.5,43.7-41.5c10.2,0.1,21.2,4.6,29.3,12L299.6,28c-4.9-4.4-11.3-7.3-17.2-7.3
			c-12.2,0-22.4,9.3-22.4,21.5c0,12.3,10.6,21.4,21.9,21.4c6.6,0,12.6-3.1,17.7-7.7l12,16c-7.6,6.9-17.7,11.7-29.7,11.7
			C259.6,83.4,238.7,66.8,238.7,41.9z"/>
	</g>
	<g>
		<path class="st0" d="M309.8,41.9c0-23.5,19-41.5,43.7-41.5c10.2,0.1,21.2,4.6,29.3,12L370.7,28c-4.9-4.4-11.3-7.3-17.2-7.3
			c-12.2,0-22.4,9.3-22.4,21.5c0,12.3,10.6,21.4,21.9,21.4c6.6,0,12.6-3.1,17.7-7.7l12,16c-7.6,6.9-17.7,11.7-29.7,11.7
			C330.7,83.4,309.8,66.8,309.8,41.9z"/>
	</g>
</g>
</svg>
